<svg xmlns="http://www.w3.org/2000/svg" width="30.813" height="43.5" viewBox="0 0 30.813 43.5">
  <g id="shop_check" transform="translate(-74.66)">
    <path id="Path_3029" data-name="Path 3029" d="M330.652,278.249a.906.906,0,0,0,.908.905h3.624a.905.905,0,1,0,0-1.811H331.56A.906.906,0,0,0,330.652,278.249Z" transform="translate(-234.243 -253.781)" fill="#d26f28"/>
    <path id="Path_3030" data-name="Path 3030" d="M335.184,320H331.56a.907.907,0,1,0,0,1.813h3.624a.907.907,0,0,0,0-1.813Z" transform="translate(-234.243 -292.813)" fill="#d26f28"/>
    <path id="Path_3031" data-name="Path 3031" d="M118.238,279.155h10.875a.905.905,0,1,0,0-1.811H118.238a.905.905,0,1,0,0,1.811Z" transform="translate(-39.047 -253.781)" fill="#d26f28"/>
    <path id="Path_3032" data-name="Path 3032" d="M335.184,405.344H331.56a.905.905,0,1,0,0,1.811h3.624a.905.905,0,1,0,0-1.811Z" transform="translate(-234.243 -370.906)" fill="#d26f28"/>
    <path id="Path_3033" data-name="Path 3033" d="M118.238,407.155h3.625a.905.905,0,1,0,0-1.811h-3.625a.905.905,0,1,0,0,1.811Z" transform="translate(-39.047 -370.906)" fill="#d26f28"/>
    <path id="Path_3034" data-name="Path 3034" d="M118.238,321.813h5.483v0a.905.905,0,0,0,0-1.808v0h-5.483a.907.907,0,0,0,0,1.813Z" transform="translate(-39.047 -292.813)" fill="#d26f28"/>
    <path id="Path_3035" data-name="Path 3035" d="M118.238,364.469a.907.907,0,1,0-.906-.905A.906.906,0,0,0,118.238,364.469Z" transform="translate(-39.047 -331.844)" fill="#d26f28"/>
    <path id="Path_3036" data-name="Path 3036" d="M160,363.564a.906.906,0,1,0,.906-.908A.906.906,0,0,0,160,363.564Z" transform="translate(-78.086 -331.844)" fill="#d26f28"/>
    <path id="Path_3037" data-name="Path 3037" d="M203.567,362.656a.907.907,0,1,0,.906.908A.907.907,0,0,0,203.567,362.656Z" transform="translate(-117.125 -331.844)" fill="#d26f28"/>
    <path id="Path_3038" data-name="Path 3038" d="M246.238,362.656a.907.907,0,1,0,.906.908A.907.907,0,0,0,246.238,362.656Z" transform="translate(-156.172 -331.844)" fill="#d26f28"/>
    <path id="Path_3039" data-name="Path 3039" d="M288.9,362.656a.907.907,0,1,0,.908.908A.907.907,0,0,0,288.9,362.656Z" transform="translate(-195.211 -331.844)" fill="#d26f28"/>
    <path id="Path_3040" data-name="Path 3040" d="M331.56,364.469a.907.907,0,1,0-.908-.905A.906.906,0,0,0,331.56,364.469Z" transform="translate(-234.243 -331.844)" fill="#d26f28"/>
    <path id="Path_3041" data-name="Path 3041" d="M374.245,362.656a.907.907,0,1,0,.905.908A.906.906,0,0,0,374.245,362.656Z" transform="translate(-273.304 -331.844)" fill="#d26f28"/>
    <path id="Path_3042" data-name="Path 3042" d="M160.9,70.344h.362l1.45,7.25H173.59l1.45-7.25h.364a.906.906,0,0,0,0-1.812h-2.136l-3.023-4.158h0a.905.905,0,1,0-1.465,1.065h0l2.247,3.092h-5.748l2.247-3.092h0a.905.905,0,1,0-1.464-1.065h0l-3.023,4.158H160.9a.906.906,0,0,0,0,1.812Zm11.2,5.438h-7.9l-1.088-5.437h10.078Z" transform="translate(-78.086 -58.563)" fill="#d26f28"/>
    <path id="Path_3043" data-name="Path 3043" d="M230.238,152.961a.906.906,0,0,0,.906-.906v-1.813a.906.906,0,0,0-1.812,0v1.813A.906.906,0,0,0,230.238,152.961Z" transform="translate(-141.531 -136.648)" fill="#d26f28"/>
    <path id="Path_3044" data-name="Path 3044" d="M262.238,152.961a.905.905,0,0,0,.905-.906v-1.813a.906.906,0,1,0-1.811,0v1.813A.906.906,0,0,0,262.238,152.961Z" transform="translate(-170.812 -136.648)" fill="#d26f28"/>
    <path id="Path_3045" data-name="Path 3045" d="M104.566,0H74.66V42.595c0,.5.2.905.453.905a3.813,3.813,0,0,0,1.264-.406l2-1a2.047,2.047,0,0,1,1.621,0l2,1a2.048,2.048,0,0,0,1.622,0l2-1a2.048,2.048,0,0,1,1.622,0l2,1a2.047,2.047,0,0,0,1.621,0l2-1a2.047,2.047,0,0,1,1.621,0l2,1a2.05,2.05,0,0,0,1.622,0l2-1a2.043,2.043,0,0,1,1.62,0l2,1a3.809,3.809,0,0,0,1.264.406c.25,0,.454-.408.454-.905V0Zm-.905,41.02-1.1-.548a3.832,3.832,0,0,0-3.242,0l-1.95.974a.373.373,0,0,1-.109,0l-1.949-.974a3.832,3.832,0,0,0-3.242,0l-1.95.974a.374.374,0,0,1-.109,0l-1.949-.974a3.833,3.833,0,0,0-3.242,0l-1.949.974a.481.481,0,0,1-.054,0,.5.5,0,0,1-.054,0l-1.949-.974a3.835,3.835,0,0,0-3.243,0l-1.1.548V1.813H103.66V41.02Z" fill="#d26f28"/>
  </g>
</svg>
