<svg xmlns="http://www.w3.org/2000/svg" width="24.597" height="24.597" viewBox="0 0 24.597 24.597">
  <g id="user" transform="translate(0.25 0.25)" style="isolation: isolate">
    <path id="Path_31" data-name="Path 31" d="M12.048,0A12.048,12.048,0,1,0,24.1,12.048,12.048,12.048,0,0,0,12.048,0Zm0,1a11.044,11.044,0,0,1,8.9,17.57,4.131,4.131,0,0,0-2.877-2.651L12.048,14.8,6.1,15.919a3.9,3.9,0,0,0-2.952,2.656A11.044,11.044,0,0,1,12.048,1Zm0,22.089a11.014,11.014,0,0,1-8.032-3.474v-.126a2.744,2.744,0,0,1,2.3-2.59l5.733-1.079,5.728,1.069c.713.226,2.3.924,2.3,2.6v.131a11.014,11.014,0,0,1-8.032,3.474Z" fill="#92b277" stroke="#92b277" stroke-width="0.5"/>
    <path id="Path_32" data-name="Path 32" d="M16.4,12.484c.387,2.164,1.807,3.559,3.615,3.559s3.2-1.36,3.615-3.549c.065-.331.382-2.008.4-2.43a3.79,3.79,0,0,0-1.059-2.806,4.106,4.106,0,0,0-5.929.025,3.725,3.725,0,0,0-1.039,2.786C16.025,10.486,16.361,12.288,16.4,12.484Zm1.365-4.518a3.1,3.1,0,0,1,4.473,0,2.791,2.791,0,0,1,.788,2.053c0,.261-.241,1.541-.382,2.284-.251,1.325-1.074,2.736-2.631,2.736s-2.4-1.471-2.626-2.731C17.245,11.56,17,10.28,17,10.019a2.726,2.726,0,0,1,.763-2.048Z" transform="translate(-7.962 -2.991)" fill="#92b277" stroke="#92b277" stroke-width="0.5"/>
  </g>
</svg>
