<svg xmlns="http://www.w3.org/2000/svg" width="47.5" height="43.5" viewBox="0 0 47.5 43.5">
  <g id="user-all" transform="translate(0 43.5)">
    <path id="Path_3027" data-name="Path 3027" d="M43.938-8.878l-7.719-3.255c-.3,0-.3-.3-.594-.592h5.344a7.4,7.4,0,0,0,3.859-.592c.594-.3,1.188-.592,1.188-1.48a1.812,1.812,0,0,0-.3-1.776c-1.484-2.367-5.047-7.694-5.047-13.316,0,0-.3-9.469-9.5-9.469a15.087,15.087,0,0,0-3.859.592,16.959,16.959,0,0,0-1.187-2.071Q23.453-43.5,18.109-43.5c-3.563,0-6.234.888-7.719,2.663A8.747,8.747,0,0,0,8.609-35.51v4.143A4.267,4.267,0,0,0,8.016-29.3v3.255A2.688,2.688,0,0,0,9.2-23.673a12.086,12.086,0,0,0,2.672,5.622v2.663a1.623,1.623,0,0,1-1.187,1.776L3.859-9.765A7.243,7.243,0,0,0,0-3.551V0H47.5V-2.959A7.1,7.1,0,0,0,43.938-8.878Zm-9.2,7.1H1.484V-3.551A5.624,5.624,0,0,1,4.453-8.286l7.125-3.847a3.4,3.4,0,0,0,1.781-3.255v-3.255h0a13,13,0,0,1-2.672-5.622l-.3-.3-.3-.3A2.241,2.241,0,0,1,9.5-26.041V-29.3a2.241,2.241,0,0,1,.594-1.184l.3-.3v-5.031a5.313,5.313,0,0,1,1.188-3.847c1.188-1.48,3.563-2.367,6.531-2.367,3.266,0,5.344.888,6.828,2.367a5.941,5.941,0,0,1,1.188,2.367h0v.3h0v.592h0v.3h0v5.327l.3.3a2.241,2.241,0,0,1,.594,1.184v3.255a1.967,1.967,0,0,1-1.187,1.48h-.3l-.3.3a22.868,22.868,0,0,1-2.078,4.735l-.891.888h0v4.735a.29.29,0,0,1,.3.3h0c.3.3.3.592.594.592v.3h0a1.544,1.544,0,0,0,1.188.592l7.422,3.847a5.725,5.725,0,0,1,2.969,5.031Zm11.281,0h-9.5v-1.48a7.093,7.093,0,0,0-4.156-6.51l-5.344-2.663a.554.554,0,0,0,0-.888c0-.592-.594-.888-1.187-.888H24.047v-.3l-.3-.3v-3.255c.3,0,.3-.3.594-.592a23.563,23.563,0,0,0,2.375-4.735A2.588,2.588,0,0,0,28.5-26.041V-29.3a2.682,2.682,0,0,0-.891-2.071V-35.51a3.381,3.381,0,0,0,0-1.776,12.8,12.8,0,0,1,3.563-.592c7.719,0,8.016,7.694,8.016,7.99,0,6.214,3.563,11.837,5.344,14.2v.592a.29.29,0,0,1-.3.3,10.187,10.187,0,0,1-3.266.592H35.328a2.253,2.253,0,0,0-1.187.592,1.34,1.34,0,0,0,0,1.48,2.435,2.435,0,0,0,1.484,1.48L43.344-7.4a5.5,5.5,0,0,1,2.672,4.439Z" fill="#d26f28" fill-rule="evenodd"/>
  </g>
</svg>
