<svg xmlns="http://www.w3.org/2000/svg" width="36.249" height="43.5" viewBox="0 0 36.249 43.5">
  <g id="cook" transform="translate(-42.686 -0.016)">
    <path id="Path_3046" data-name="Path 3046" d="M75.948,34.2l-.135-.038a20.976,20.976,0,0,1-3.5-1.366c-3.1-1.18-3.9-2.031-4.11-2.433-.007-.013-.013-.029-.02-.045l-.019-2.705c.149-.2.295-.4.435-.613,1.925-.933,2.185-2.405,1.8-3.624a11.6,11.6,0,0,0,.6-3.619,13.644,13.644,0,0,0-.094-1.618h.094V12.6a6.344,6.344,0,1,0-5.663-10.68,6.343,6.343,0,0,0-8.612-.42,6.344,6.344,0,1,0-6.116,10.867v5.773h.094a13.644,13.644,0,0,0-.094,1.618,11.611,11.611,0,0,0,.6,3.62c-.382,1.217-.122,2.689,1.8,3.623.141.21.287.413.435.613l-.019,2.705c-.007.016-.013.032-.02.045-.206.4-1.013,1.253-4.111,2.433a20.9,20.9,0,0,1-3.5,1.366l-.135.038a4.338,4.338,0,0,0-2.987,4.117v5.2H78.935v-5.2A4.338,4.338,0,0,0,75.948,34.2Zm-20.7-3.87.005-.693c1.847,1.754,3.917,2.84,5.556,2.84s3.709-1.086,5.556-2.84l.005.693,0,.385.061.135-5.617,3.668L55.23,30.756l.017-.038Zm5.561-4.078a5.4,5.4,0,0,0,3.858,1.609c.151,0,.3-.007.454-.021.184-.016.362-.034.535-.057a11.975,11.975,0,0,1-2.542,2.08,4.917,4.917,0,0,1-2.3.8,4.917,4.917,0,0,1-2.3-.8,11.98,11.98,0,0,1-2.542-2.08c.173.023.35.041.535.057.151.015.3.021.454.021A5.4,5.4,0,0,0,60.81,26.255Zm4.146-.216c-.094.009-.191.013-.288.013a3.275,3.275,0,0,1-2.761-1.366c-.069-.142-.2-.409.214-.921l.052-.064a8.965,8.965,0,0,1,.884.6A5.84,5.84,0,0,0,66.5,25.795h.042A11.89,11.89,0,0,1,64.956,26.039Zm-5.242-1.353a2.3,2.3,0,0,1-.984.908,3.8,3.8,0,0,1-1.778.458c-.1,0-.194,0-.288-.013a11.906,11.906,0,0,1-1.59-.244h.042a5.84,5.84,0,0,0,3.448-1.489,8.949,8.949,0,0,1,.884-.6q.024.028.052.064C59.91,24.277,59.783,24.544,59.714,24.686ZM48.123,6.359a4.53,4.53,0,0,1,7.4-3.506,6.311,6.311,0,0,0-1.057,3.506.907.907,0,0,0,1.813,0,4.531,4.531,0,1,1,9.061,0h0a.907.907,0,0,0,1.813,0v0a6.318,6.318,0,0,0-.725-2.94,4.6,4.6,0,0,1,.463-.468,4.531,4.531,0,1,1,3.791,7.872l-1.491.269v5.241H52.427V11.069L51.2,10.652A4.529,4.529,0,0,1,48.123,6.359ZM69.085,18.141a11.91,11.91,0,0,1,.109,1.618,9.181,9.181,0,0,1-.169,1.726,1.174,1.174,0,0,0-.595-.2h-.02a2.314,2.314,0,0,0-1.819,1.312,1.8,1.8,0,0,1,.53-.082c.847,0,1.365.652.295,1.229a1.891,1.891,0,0,1-.912.24c-1.624,0-3.012-2.154-4.426-2.154a1.674,1.674,0,0,0-1.268.678,1.673,1.673,0,0,0-1.268-.678c-1.414,0-2.8,2.154-4.426,2.154a1.9,1.9,0,0,1-.913-.24c-1.069-.578-.551-1.229.3-1.229a1.8,1.8,0,0,1,.53.082,2.314,2.314,0,0,0-1.819-1.312h-.02a1.174,1.174,0,0,0-.595.2,9.175,9.175,0,0,1-.169-1.726,11.924,11.924,0,0,1,.109-1.618H69.085ZM44.5,38.32a2.527,2.527,0,0,1,1.716-2.387l.081-.024a15.691,15.691,0,0,0,2.988-1.117c.259-.123.465-.222.669-.3a21.729,21.729,0,0,0,2.7-1.216V41.7H44.5ZM54.466,41.7V32.428L60.8,36.7l6.352-4.148V41.7H54.466Zm22.656,0H68.967V33.277a21.856,21.856,0,0,0,2.7,1.217c.2.077.409.175.668.3a15.757,15.757,0,0,0,2.988,1.118l.081.023a2.527,2.527,0,0,1,1.716,2.387V41.7Z" transform="translate(0 0)" fill="#d26f28"/>
    <path id="Path_3047" data-name="Path 3047" d="M214.238,426.646a.907.907,0,1,0,.907.907A.907.907,0,0,0,214.238,426.646Z" transform="translate(-156.146 -390.381)" fill="#d26f28"/>
    <path id="Path_3048" data-name="Path 3048" d="M214.238,469.314a.906.906,0,1,0,.907.907A.907.907,0,0,0,214.238,469.314Z" transform="translate(-156.146 -429.424)" fill="#d26f28"/>
    <path id="Path_3049" data-name="Path 3049" d="M278.233,428.459a.907.907,0,1,0-.907-.907A.907.907,0,0,0,278.233,428.459Z" transform="translate(-214.704 -390.381)" fill="#d26f28"/>
    <path id="Path_3050" data-name="Path 3050" d="M278.233,469.314a.906.906,0,1,0,.907.907A.907.907,0,0,0,278.233,469.314Z" transform="translate(-214.704 -429.424)" fill="#d26f28"/>
  </g>
</svg>
