<svg xmlns="http://www.w3.org/2000/svg" width="27.012" height="21.288" viewBox="0 0 27.012 21.288">
  <g id="customer" transform="translate(17783.363 9175.342)">
    <path id="Path_33" data-name="Path 33" d="M-17773.328-9155.559a7.514,7.514,0,0,1-3.92,1.668,5.038,5.038,0,0,1-5.084-3.984,5.11,5.11,0,0,1,2.9-5.7,5.315,5.315,0,0,1,4.066,0" transform="translate(0 -7.823)" fill="none" stroke="#92b277" stroke-width="1.8"/>
    <path id="Path_35" data-name="Path 35" d="M-17780.316-9155.543a5.519,5.519,0,0,0,3.561,1.687,5.245,5.245,0,0,0,5.326-3.983,5.074,5.074,0,0,0-3.035-5.7,6.442,6.442,0,0,0-4.029-.131" transform="translate(14.041 -7.857)" fill="none" stroke="#92b277" stroke-width="1.8"/>
    <path id="Path_34" data-name="Path 34" d="M-17757.551-9169.184a6.421,6.421,0,0,1,6.1-5.251c5.27-.213,6.549,5.251,6.549,5.251" transform="translate(-18.624 -0.001)" fill="none" stroke="#92b277" stroke-width="1.8"/>
    <path id="Path_36" data-name="Path 36" d="M-17762.16-9123.991v6.759h14.957v-6.759" transform="translate(-15.177 -37.722)" fill="none" stroke="#92b277" stroke-width="1.8"/>
    <path id="Path_37" data-name="Path 37" d="M-17762.16-9106.94h11.939" transform="translate(-15.177 -50.47)" fill="none" stroke="#92b277" stroke-width="1.8"/>
  </g>
</svg>
