<svg xmlns="http://www.w3.org/2000/svg" width="41.5" height="43" viewBox="0 0 41.5 43">
  <g id="sale" transform="translate(-0.5 43)">
    <path id="Path_3028" data-name="Path 3028" d="M41.729-26.606A3.381,3.381,0,0,0,42-28.219c-.271-.538-.814-.806-1.085-1.075l-4.882-2.419c-.271-.269-.271-.269-.271-.538l-.814-5.375a2.36,2.36,0,0,0-2.17-1.612h-.271l-5.425.806c-.271,0-.271,0-.542-.269l-3.8-3.763A2.306,2.306,0,0,0,21.114-43a2.082,2.082,0,0,0-1.356.537l-3.8,3.763c-.271.269-.271.269-.542.269l-5.425-.806H9.722a2.36,2.36,0,0,0-2.17,1.612L6.739-32.25c0,.269,0,.269-.271.538L1.585-29.294A2.108,2.108,0,0,0,.5-28.219a3.381,3.381,0,0,0,.271,1.612l2.441,4.838v.537L.771-16.394A3.381,3.381,0,0,0,.5-14.781a2.108,2.108,0,0,0,1.085,1.075l4.882,2.419c.271.269.271.269.271.538l.814,5.106a2.3,2.3,0,0,0,2.17,1.881h.271l5.425-.806c.271,0,.271,0,.542.269l3.8,3.762A2.082,2.082,0,0,0,21.114,0a2.306,2.306,0,0,0,1.627-.537l3.8-3.762c.271-.269.271-.269.542-.269l5.154.806h.542a2.3,2.3,0,0,0,2.17-1.881l.814-5.106c0-.269,0-.269.271-.538l4.611-2.419c.542-.269,1.085-.537,1.085-1.075a1.7,1.7,0,0,0,0-1.612l-2.441-4.838v-.537Zm-3.8,6.181,2.441,4.569v.537l-.271.269-4.882,2.419a1.815,1.815,0,0,0-1.085,1.613L33.32-5.644c0,.269-.271.269-.542.269l-5.425-.806h-.271a3.88,3.88,0,0,0-1.627.537l-3.8,3.763a.511.511,0,0,1-.814,0l-3.8-3.763a2.306,2.306,0,0,0-1.627-.537h-.271l-5.154.806c-.542,0-.814,0-.814-.269l-.814-5.375a1.815,1.815,0,0,0-1.085-1.613L2.4-15.05l-.271-.269v-.537l2.441-4.569a1.624,1.624,0,0,0,0-2.15L2.127-27.144v-.538L2.4-27.95l4.882-2.419a1.815,1.815,0,0,0,1.085-1.613l.814-5.375c0-.269.271-.269.542-.269l5.425.806h.271a3.88,3.88,0,0,0,1.627-.538l3.8-3.763a.511.511,0,0,1,.814,0l3.8,3.763a3.947,3.947,0,0,0,1.9.538l5.154-.806c.542,0,.814,0,.814.269l.814,5.375a1.815,1.815,0,0,0,1.085,1.613L40.1-27.95l.271.269v.538l-2.441,4.569A2.942,2.942,0,0,0,37.931-20.425ZM22.471-22.306H20.029A1.742,1.742,0,0,1,18.4-23.919a1.742,1.742,0,0,1,1.627-1.612H24.1a.863.863,0,0,0,.814-.806.863.863,0,0,0-.814-.806h-2.17v-1.344a.716.716,0,0,0-.814-.806.863.863,0,0,0-.814.806v1.344h-.271a3.284,3.284,0,0,0-3.255,3.225,3.284,3.284,0,0,0,3.255,3.225H22.2a1.556,1.556,0,0,1,1.627,1.613A1.556,1.556,0,0,1,22.2-17.469H18.4a.716.716,0,0,0-.814.806.862.862,0,0,0,.814.806h1.9v1.344a.863.863,0,0,0,.814.806.716.716,0,0,0,.814-.806v-1.344H22.2a3.283,3.283,0,0,0,3.255-3.225A3.062,3.062,0,0,0,22.471-22.306Zm5.154-8.331a.265.265,0,0,0,.271.269c.271,0,.542-.269.814-.269a1.174,1.174,0,0,0-.271-1.344,1.643,1.643,0,0,0-1.085.269C27.082-31.175,27.082-30.906,27.624-30.638Zm2.441,2.15c.271,0,.542,0,.542-.269a.812.812,0,0,0,0-1.075.831.831,0,0,0-1.085,0,.812.812,0,0,0,0,1.075C29.794-28.487,29.794-28.487,30.065-28.487Zm-4.882,17.2c-.542.269-.542.538-.542,1.075.271.269.542.537.814.537h.271a1.07,1.07,0,0,0,.542-1.075C26-11.288,25.725-11.556,25.183-11.288Zm2.441-1.344c-.542.269-.542.806-.271,1.344.271,0,.271.269.542.269s.542,0,.542-.269c.271-.269.542-.537.271-1.075A1.643,1.643,0,0,0,27.624-12.631ZM17.317-11.288a1.086,1.086,0,0,0-1.085.538,1.07,1.07,0,0,0,.542,1.075h.271c.271,0,.542-.269.814-.537C17.859-10.75,17.859-11.019,17.317-11.288Zm5.154.538a1.392,1.392,0,0,0-.542,1.075c0,.269.271.538.814.538h0a.716.716,0,0,0,.814-.806C23.556-10.481,23.013-10.75,22.471-10.75Zm-2.441,0h0c-.542,0-.814.269-1.085.806a.716.716,0,0,0,.814.806h0c.542,0,.814-.269.814-.538A1.392,1.392,0,0,0,20.029-10.75ZM31.964-24.187h0c0,.269.542.538.814.538h.271c.271,0,.542-.538.542-.806-.271-.538-.542-.806-1.085-.538C32.235-24.994,31.964-24.456,31.964-24.187Zm1.085,1.881a.863.863,0,0,0-.814.806.863.863,0,0,0,.814.806.716.716,0,0,0,.814-.806A.716.716,0,0,0,33.049-22.306Zm0,2.688c-.542,0-1.085.269-1.085.806,0,.269.271.806.542.806h.271c.271,0,.814-.269.814-.538A1.392,1.392,0,0,0,33.049-19.619Zm-1.356-6.45c.271,0,.271-.269.542-.269.271-.269.542-.538.271-1.075-.271-.269-.814-.538-1.085-.269a.662.662,0,0,0-.271,1.075A.581.581,0,0,0,31.693-26.069Zm-2.17,11.825a.812.812,0,0,0,0,1.075.844.844,0,0,0,.542.269,1,1,0,0,0,.814-.269c.271-.269,0-.806-.271-1.075A.831.831,0,0,0,29.523-14.244Zm2.712-2.419c-.542-.269-1.085-.269-1.085.269a.662.662,0,0,0,.271,1.075h.271a1,1,0,0,0,.814-.269C32.778-16.125,32.507-16.663,32.235-16.663Zm-19.8-11.825c.271,0,.271,0,.542-.269a.812.812,0,0,0,0-1.075,1.241,1.241,0,0,0-1.356,0c-.271.269,0,.806.271,1.075C11.892-28.487,12.163-28.487,12.435-28.487Zm-2.17,11.825c-.271.269-.542.538-.271,1.075a1,1,0,0,0,.814.269h.271a.662.662,0,0,0,.271-1.075C11.35-16.663,10.807-16.931,10.265-16.663Zm.271-2.15c-.271-.538-.542-.806-1.085-.538-.271,0-.542.538-.542.806,0,.538.542.538.814.538h.271C10.265-18.006,10.536-18.544,10.536-18.812ZM9.451-23.65h.271c.271,0,.814,0,.814-.538,0-.269-.271-.806-.542-.806-.542-.269-1.085,0-1.085.538C8.908-24.187,9.18-23.65,9.451-23.65Zm0,2.956a.863.863,0,0,0,.814-.806h0a.863.863,0,0,0-.814-.806.716.716,0,0,0-.814.806h0A.716.716,0,0,0,9.451-20.694Zm.814-5.644c.271,0,.271.269.542.269a.581.581,0,0,0,.542-.538.662.662,0,0,0-.271-1.075c-.271-.269-.814,0-1.085.269C9.722-26.875,9.993-26.606,10.265-26.337Zm1.627,12.094c-.271.269-.542.806,0,1.075,0,.269.271.269.542.269s.271,0,.542-.269a.812.812,0,0,0,0-1.075A.831.831,0,0,0,11.892-14.244Zm7.866-18.275h.271c.271,0,.542-.269.542-.806s-.542-.806-.814-.537a.716.716,0,0,0-.814.806C18.944-32.787,19.487-32.519,19.758-32.519Zm2.712,0h.271c.271,0,.542-.269.814-.538a.716.716,0,0,0-.814-.806.561.561,0,0,0-.814.537C21.928-32.787,22.2-32.519,22.471-32.519Zm2.712.806h.271c.271,0,.542-.269.814-.538,0-.537,0-.806-.542-1.075-.542,0-.814,0-1.085.538A1.07,1.07,0,0,0,25.183-31.712Zm-8.137,0h.271a2.03,2.03,0,0,0,.542-1.075,1.086,1.086,0,0,0-1.085-.538h0a1.07,1.07,0,0,0-.542,1.075C16.5-31.981,16.775-31.712,17.046-31.712Zm-2.17,19.35a.831.831,0,0,0-1.085,0c-.271.538,0,1.075.271,1.075.271.269.271.269.542.269s.542,0,.542-.269C15.418-11.825,15.418-12.094,14.876-12.363ZM14.6-30.369a.265.265,0,0,0,.271-.269c.542-.269.542-.537.271-1.075a1.643,1.643,0,0,0-1.085-.269,1.174,1.174,0,0,0-.271,1.344C14.062-30.638,14.333-30.369,14.6-30.369Z" fill="#d26f28" fill-rule="evenodd"/>
  </g>
</svg>
