<svg xmlns="http://www.w3.org/2000/svg" width="17.349" height="15.181" viewBox="0 0 17.349 15.181">
  <path id="hamburger" d="M15.723,9.84H1.626a1.626,1.626,0,1,0,0,3.253h14.1a1.626,1.626,0,1,0,0-3.253Zm.542,4.337H1.084a.542.542,0,0,0-.542.542v.542a2.169,2.169,0,0,0,2.169,2.169H14.638a2.169,2.169,0,0,0,2.169-2.169V14.72A.542.542,0,0,0,16.265,14.178ZM1.987,8.756H15.362a1.651,1.651,0,0,0,1.18-2.571A9.317,9.317,0,0,0,8.675,2.25,9.318,9.318,0,0,0,.807,6.184,1.651,1.651,0,0,0,1.987,8.756Zm11.025-3.8a.542.542,0,1,1-.542.542A.542.542,0,0,1,13.012,4.961ZM8.675,3.876a.542.542,0,1,1-.542.542A.542.542,0,0,1,8.675,3.876ZM4.337,4.961A.542.542,0,1,1,3.8,5.5.542.542,0,0,1,4.337,4.961Z" transform="translate(0 -2.25)" fill="#93b278"/>
</svg>
