<svg xmlns="http://www.w3.org/2000/svg" width="15.239" height="14.076" viewBox="0 0 15.239 14.076">
  <g id="ios-cart" transform="translate(-3.382 -4.493)">
    <path id="Path_3116" data-name="Path 3116" d="M11.321,29a.879.879,0,1,1-.879-.879.879.879,0,0,1,.879.879Z" transform="translate(-2.959 -11.315)" fill="#93b278"/>
    <path id="Path_3117" data-name="Path 3117" d="M27.107,29a.879.879,0,1,1-.879-.879.879.879,0,0,1,.879.879Z" transform="translate(-10.518 -11.315)" fill="#93b278"/>
    <path id="Path_3118" data-name="Path 3118" d="M18.616,7a.215.215,0,0,0-.191-.154L6.49,5.688a.367.367,0,0,1-.275-.172,3.732,3.732,0,0,0-.447-.682c-.282-.344-.814-.333-1.788-.341a.534.534,0,0,0-.6.517.524.524,0,0,0,.572.517,4.869,4.869,0,0,1,.953.07c.172.051.311.333.363.579a.013.013,0,0,0,0,.011c.007.044.073.374.073.377l1.466,7.754a2.85,2.85,0,0,0,.531,1.308,1.462,1.462,0,0,0,1.206.594h8.67a.521.521,0,0,0,.528-.491.511.511,0,0,0-.513-.535H8.542a.426.426,0,0,1-.3-.1,1.644,1.644,0,0,1-.421-.953l-.158-.869a.02.02,0,0,1,.015-.022L17.85,11.525a.214.214,0,0,0,.18-.191l.586-4.244A.209.209,0,0,0,18.616,7Z" transform="translate(0 0)" fill="#93b278"/>
  </g>
</svg>
