<svg xmlns="http://www.w3.org/2000/svg" width="11.6" height="14.997" viewBox="0 0 11.6 14.997">
  <g id="noti" transform="translate(-51 -419.695)">
    <path id="Path_391" data-name="Path 391" d="M14.6,10.746a7.349,7.349,0,0,1-1.218-2.564,10.126,10.126,0,0,1-.32-2.756,4.11,4.11,0,0,0-1.218-3.012A4.378,4.378,0,0,0,9.793,1.261a.964.964,0,0,0-.256-.7A.964.964,0,0,0,8.832.3a.964.964,0,0,0-.7.256.964.964,0,0,0-.256.7v.064a3.751,3.751,0,0,0-2.115,1.09A4.066,4.066,0,0,0,4.474,5.427a10.655,10.655,0,0,1-.32,2.82A7.618,7.618,0,0,1,3,10.746c0,.7,2.628,1.41,5.832,1.41s5.7-.7,5.768-1.41Z" transform="translate(48 419.396)" fill="#93b278"/>
    <path id="Path_392" data-name="Path 392" d="M9.3,20.6v.256a1.751,1.751,0,0,0,1.73,1.73,1.905,1.905,0,0,0,1.282-.513,1.751,1.751,0,0,0,.513-1.218V20.6c-.641.064-1.282.064-1.987.064A11.359,11.359,0,0,1,9.3,20.6Z" transform="translate(45.737 412.105)" fill="#93b278"/>
  </g>
</svg>
